Simulation
nRows=16
nColumns=15
endheader
time  TH_x TH_y TH_z SC_y  SC_z  SC_x  AC_y  AC_z  AC_x  GH_y  GH_z  GH_yy  EL_x  PS_y
0.0  0.000000  0.000000  0.000000  -40.97484877243665  6.293857566463187  5.290427962726946  44.254292685239896  7.316807208057888  0.035069720654575996  175.20088635279163  6.663374923225085  -150.01151286884314  22.65151142952582  120.000000
0.05745  0.000000  0.000000  0.000000  -38.97990936794381  5.7914439789532155  3.1620898759888987  43.464303056090934  7.465211491679669  0.24995300488346017  171.64864529625672  3.474484342691536  -147.6728552003923  22.06630267751109  120.000000
0.1149  0.000000  0.000000  0.000000  -37.14216085592363  5.13703231558846  1.0235214580207286  42.76009751496563  7.429715226802225  0.5019625723656486  128.33950481105717  0.6412846568748162  -105.56738955605682  21.6624136904666  120.000000
0.17235  0.000000  0.000000  0.000000  -35.565335044628505  4.392142578999412  -1.030257351064841  42.17958861211744  7.270468296459167  0.8100716991278131  13.339552278467641  2.593060049722429  8.224794610478288  21.51952829352722  120.000000
0.2298  0.000000  0.000000  0.000000  -34.296492827684936  3.6356226518967127  -2.9316395714068526  41.742693091176186  7.07724090402265  1.1908556170054023  8.115136769100232  5.441758464863568  12.226939672751845  21.645598538911322  120.000000
0.28725  0.000000  0.000000  0.000000  -33.34422470716769  2.9506395664921903  -4.645633544598994  41.43748856535521  6.951044475707331  1.6593774251207807  6.532372677356911  8.318617815366695  12.552470151135761  21.976716817980424  120.000000
0.3447  0.000000  0.000000  0.000000  -32.70550552682318  2.4145258235950497  -6.153413832523238  41.23236098380669  6.9702923028442525  2.2184473533564475  5.443877345771508  11.27114464396822  12.32213971835222  22.412880516422007  120.000000
0.40215  0.000000  0.000000  0.000000  -32.38364449492828  2.0817791809440283  -7.423415269751363  41.09377079174512  7.161624441958018  2.8404983632918603  4.400581815939414  14.35470377281311  11.959816303274977  22.843600361995037  120.000000
0.4596  0.000000  0.000000  0.000000  -32.383049254217525  1.9873815835236959  -8.415529135036062  40.996447651810655  7.499234220300577  3.479903393945726  3.3700940472263  17.60754286835283  11.486893974410894  23.17622554700132  120.000000
0.51705  0.000000  0.000000  0.000000  -32.69990022947981  2.147951395851044  -9.089303169749737  40.92658285897964  7.922303079602317  4.09534566260325  2.4070491501664657  21.035983884217032  10.858289592373065  23.349607532750717  120.000000
0.5745  0.000000  0.000000  0.000000  -33.31283234460799  2.5655775141412165  -9.42531987516872  40.8877895445908  8.36453042160449  4.672469522061494  1.584973143275739  24.609418711499394  10.030056256582236  23.34208363988432  120.000000
0.63195  0.000000  0.000000  0.000000  -34.19347867642464  3.2212574127616698  -9.461033443653081  40.89853503617292  8.79044652992995  5.248413926331587  0.9839345139915823  28.275912365785604  8.960909681174046  23.164251804962234  120.000000
0.6894  0.000000  0.000000  0.000000  -35.31698385694177  4.07442213120578  -9.260696996551706  40.99216044010213  9.182869441856003  5.878316713909003  0.684294782845579  31.980741429750296  7.604840031607324  22.846509146173112  120.000000
0.74685  0.000000  0.000000  0.000000  -36.66056555364271  5.068327517536947  -8.872123426649457  41.20856548681063  9.52825277687017  6.593758901673598  0.7367008783970479  35.67201648572155  5.92818755994126  22.42653769628883  120.000000
0.8043  0.000000  0.000000  0.000000  -38.19343019006856  6.145533013543561  -8.32558373270801  41.57745489145789  9.826900780403276  7.401712452416823  1.1431160765257422  39.29706990588857  3.9235068174842676  21.942439304984074  120.000000
0.86175  0.000000  0.000000  0.000000  -39.87049446184434  7.250664383881474  -7.635789675377809  42.103786268375146  10.099484277671833  8.282883423192661  1.8479899300048435  42.80071187134437  1.6216447283748867  21.428645656032476  120.000000
